<!-- Generated by frontend/scripts/build-logo-assets.mjs from src/components/brand/logo.ts. Do not edit. -->
<svg xmlns="http://www.w3.org/2000/svg" viewBox="0 0 256 256" width="256" height="256" role="img" aria-label="ECTLogger"><circle cx="128" cy="128" r="124" fill="#2f7a3c"/><circle cx="128" cy="128" r="110" fill="#0f2616"/><circle cx="128" cy="128" r="76" fill="none" stroke="#2a5a36" stroke-width="3"/><circle cx="128" cy="128" r="42" fill="none" stroke="#2a5a36" stroke-width="3"/><line x1="18" y1="128" x2="238" y2="128" stroke="#2a5a36" stroke-width="3"/><path d="M128 128 L128 18 A110 110 0 0 1 223.3 73 Z" fill="#6fd67f" fill-opacity="0.28"/><line x1="128" y1="128" x2="223.3" y2="73" stroke="#6fd67f" stroke-width="4" stroke-linecap="round"/><g stroke="#4f8a5c" stroke-linecap="round" fill="none"><line x1="128" y1="74" x2="128" y2="214" stroke-width="6"/><line x1="90" y1="74" x2="168" y2="74" stroke-width="5"/><line x1="90" y1="48" x2="90" y2="100" stroke-width="5"/><line x1="110" y1="52" x2="110" y2="96" stroke-width="5"/><line x1="129" y1="56" x2="129" y2="92" stroke-width="5"/><line x1="149" y1="60" x2="149" y2="88" stroke-width="5"/><line x1="168" y1="64" x2="168" y2="84" stroke-width="5"/></g><circle cx="186" cy="56" r="7" fill="#d4f7d9"/><circle cx="68" cy="162" r="5" fill="#5fbf6d"/><circle cx="182" cy="178" r="4" fill="#5fbf6d"/><polyline points="76,138 112,174 184,100" fill="none" stroke="#0f2616" stroke-width="42" stroke-linecap="round" stroke-linejoin="round"/><polyline points="76,138 112,174 184,100" fill="none" stroke="#6fd67f" stroke-width="26" stroke-linecap="round" stroke-linejoin="round"/></svg>
